<svg width="420" height="348" viewBox="0 0 420 348" fill="none" xmlns="http://www.w3.org/2000/svg">
<path d="M70.0001 222.53C70.0001 145.31 132.82 82.53 210 82.53C287.18 82.53 350 145.35 350 222.53C349.987 246.999 343.566 271.038 331.376 292.254C319.186 313.471 301.653 331.125 280.52 343.46H381.75C406.719 308.085 420.085 265.829 420 222.53C420 106.53 326 12.53 210 12.53C94 12.53 5.14469e-05 106.53 5.14469e-05 222.53C-0.072758 265.833 13.307 308.09 38.29 343.46H139.44C118.315 331.12 100.789 313.464 88.6067 292.248C76.424 271.031 70.0091 246.995 70.0001 222.53Z" fill="#B8F0FF"/>
<path d="M350 222.53C350 145.31 287.18 82.53 210 82.53C132.82 82.53 70 145.35 70 222.53C70.0131 246.999 76.4341 271.038 88.624 292.254C100.814 313.471 118.348 331.125 139.48 343.46H280.56C301.685 331.12 319.211 313.464 331.393 292.248C343.576 271.031 349.991 246.995 350 222.53V222.53Z" fill="#80D8FF"/>
<path d="M74.2377 50.7999L53.6003 58.2176C50.0298 59.501 48.1756 63.4358 49.459 67.0064L66.3577 114.022C67.6411 117.592 71.576 119.446 75.1465 118.163L95.7839 110.745C99.3545 109.462 101.209 105.527 99.9253 101.956L83.0265 54.9412C81.7432 51.3706 77.8083 49.5165 74.2377 50.7999Z" fill="white"/>
<path d="M90 74.38C90 74.38 99.62 101.17 91.07 104.88C83.36 108.22 61.23 115.39 61.23 115.39L66.11 124.21L112.85 109.38L90 74.38Z" fill="#B8F0FF"/>
<path d="M74.2377 50.7999L53.6003 58.2176C50.0298 59.501 48.1756 63.4358 49.459 67.0064L66.3577 114.022C67.6411 117.592 71.576 119.446 75.1465 118.163L95.7839 110.745C99.3545 109.462 101.209 105.527 99.9253 101.956L83.0265 54.9412C81.7432 51.3706 77.8083 49.5165 74.2377 50.7999Z" stroke="#303870" stroke-width="2.25" stroke-linecap="round" stroke-linejoin="round"/>
<path d="M56.5384 48.5884L65.8549 45.2397C66.394 45.046 66.988 45.0743 67.5062 45.3185C68.0245 45.5627 68.4244 46.0027 68.6182 46.5418L70.6139 52.0941L57.2226 56.9073L55.227 51.355C55.1307 51.0873 55.0883 50.8032 55.1022 50.519C55.1161 50.2349 55.186 49.9563 55.3078 49.6992C55.4297 49.4421 55.6011 49.2116 55.8123 49.021C56.0235 48.8304 56.2703 48.6833 56.5384 48.5884Z" fill="#80D8FF" stroke="#303870" stroke-width="2.25" stroke-linecap="round" stroke-linejoin="round"/>
<path d="M58.1915 32.8104L54.5308 34.1262L59.3677 47.5833L63.0284 46.2675L58.1915 32.8104Z" fill="#303870" stroke="#303870" stroke-width="2.25" stroke-linecap="round" stroke-linejoin="round"/>
<path d="M64.8745 30.395L63.5587 26.7343L50.1016 31.5712L51.4174 35.2319L64.8745 30.395Z" fill="#303870" stroke="#303870" stroke-width="2.25" stroke-linecap="round" stroke-linejoin="round"/>
<path d="M57.5 71.2L62.56 85.8" stroke="#80D8FF" stroke-width="2.25" stroke-linecap="round" stroke-linejoin="round"/>
<path d="M66.16 94.89L68.69 102.19" stroke="#80D8FF" stroke-width="2.25" stroke-linecap="round" stroke-linejoin="round"/>
<path d="M316.19 15.61C312.48 18.77 306.26 26.19 302.88 30.99C299.5 35.79 298.51 38.19 299.71 41.14C300.91 44.09 303.64 49.54 304.84 50.95C306.04 52.36 315.2 55.86 318.7 54.66C322.2 53.46 335.7 36.34 337.24 33.5C338.78 30.66 336.37 21.5 334.95 20.08C333.53 18.66 326.18 12.18 322.69 12.5C320.271 12.8966 318.016 13.9756 316.19 15.61Z" fill="#F4B3A8"/>
<path d="M297.42 37C297.42 37 311.5 46 316.19 44C320.88 42 332.66 27.86 334.19 23.49C335.72 19.12 334.84 16.82 331.02 12.49C327.2 8.16 319.68 6.88 312.91 13.32C306.14 19.76 297.42 37 297.42 37Z" fill="#FEDED5" stroke="#303870" stroke-width="2.25" stroke-linecap="round" stroke-linejoin="round"/>
<path d="M321.53 22.59L311.6 35.46" stroke="#303870" stroke-width="2.25" stroke-linecap="round" stroke-linejoin="round"/>
<path d="M316.19 15.61C312.48 18.77 306.26 26.19 302.88 30.99C299.5 35.79 298.51 38.19 299.71 41.14C300.91 44.09 303.64 49.54 304.84 50.95C306.04 52.36 315.2 55.86 318.7 54.66C322.2 53.46 335.7 36.34 337.24 33.5C338.78 30.66 336.37 21.5 334.95 20.08C333.53 18.66 326.18 12.18 322.69 12.5C320.271 12.8966 318.016 13.9756 316.19 15.61V15.61Z" stroke="#303870" stroke-width="2.25" stroke-linecap="round" stroke-linejoin="round"/>
<path d="M169.49 152.2C158.18 145.2 153.05 127.2 156.9 109.52C160.75 91.84 161.82 76.27 162.56 57.79C163.3 39.31 162.23 12.79 188.49 4.53C194.006 2.74546 199.754 1.77525 205.55 1.65C227.23 1.35 242.6 15.03 246.55 33.77C251.43 57.11 252.05 83.92 257.41 99.28C262.77 114.64 268.27 132.57 257.41 143.88C246.55 155.19 169.49 152.2 169.49 152.2Z" fill="white"/>
<path d="M169.86 156.57C158.55 149.57 154.86 131.97 158.67 114.26C162.48 96.55 162.19 80.64 162.93 62.16C163.67 43.68 162.6 17.16 188.86 8.9C194.375 7.10867 200.123 6.13171 205.92 6C227.6 5.7 242.97 19.39 246.92 38.12C251.8 61.46 252.42 88.27 257.78 103.63C263.14 118.99 268.64 136.92 257.78 148.23C246.92 159.54 169.86 156.57 169.86 156.57Z" fill="#F87B5A"/>
<path d="M169.86 156.57C158.55 149.57 154.47 131.87 158.31 114.16C162.15 96.45 162.19 80.64 162.93 62.16" fill="#F87B5A"/>
<path d="M208.08 99.75C229.001 99.75 245.96 82.504 245.96 61.23C245.96 39.956 229.001 22.71 208.08 22.71C187.16 22.71 170.2 39.956 170.2 61.23C170.2 82.504 187.16 99.75 208.08 99.75Z" fill="#F87B5A"/>
<path d="M166.28 71.2C166.28 71.2 175.46 94.2 174.47 118.93C173.78 136.22 184.95 155.37 184.95 155.37H242.13C242.13 155.37 250.73 118.76 246.54 91.21C242.35 63.66 231.54 65.64 231.54 65.64L166.28 71.2Z" fill="#F25444"/>
<path d="M207.71 95.38C228.631 95.38 245.59 78.134 245.59 56.86C245.59 35.586 228.631 18.34 207.71 18.34C186.79 18.34 169.83 35.586 169.83 56.86C169.83 78.134 186.79 95.38 207.71 95.38Z" fill="#80D8FF" stroke="#303870" stroke-width="2.25" stroke-linecap="round" stroke-linejoin="round"/>
<path d="M181.56 17.9C182.31 17.35 183.12 16.81 183.98 16.29C190.47 12.39 194.84 12.29 194.84 12.29" stroke="white" stroke-width="2.25" stroke-linecap="round" stroke-linejoin="round"/>
<path d="M173.71 26.25C174.818 24.4311 176.141 22.7524 177.65 21.25" stroke="white" stroke-width="2.25" stroke-linecap="round" stroke-linejoin="round"/>
<path d="M169.49 152.2C158.18 145.2 153.05 127.2 156.9 109.52C160.75 91.84 161.82 76.27 162.56 57.79C163.3 39.31 162.23 12.79 188.49 4.53C194.006 2.74546 199.754 1.77525 205.55 1.65C227.23 1.35 242.6 15.03 246.55 33.77C251.43 57.11 252.05 83.92 257.41 99.28C262.77 114.64 268.27 132.57 257.41 143.88C246.55 155.19 169.49 152.2 169.49 152.2Z" stroke="#303870" stroke-width="2.25" stroke-linecap="round" stroke-linejoin="round"/>
<path d="M209.63 128.19C188.91 128.07 139.75 131.1 122.88 147.97C106.01 164.84 100.77 191.61 98.1501 213.72C96.5973 226.267 95.8192 238.897 95.8201 251.54H131.9L124.33 343.46H293.33L288.09 248.92H324.17C324.17 248.92 319.22 190.74 301.77 167.46C284.32 144.18 260.6 128.48 209.63 128.19Z" fill="white"/>
<path d="M136.56 251.38H127.41L118.12 346.83H132.48L136.56 251.38Z" fill="#80D8FF"/>
<path d="M151.39 128.19C151.39 128.19 155.63 150.88 170 161.9C185.3 173.63 197.06 166.23 201.71 161.9C204.463 159.386 206.45 156.145 207.44 152.55L184.55 121.5L151.39 128.19Z" fill="#8981EA"/>
<path d="M166.28 121.58C166.28 121.58 174.99 148.58 210 148.24C245.01 147.9 249.19 120.45 249.19 120.45L166.28 121.58Z" fill="#6851F9"/>
<path d="M151.39 128.19C151.39 128.19 155.63 150.88 170 161.9C185.3 173.63 197.06 166.23 201.71 161.9C204.463 159.386 206.45 156.145 207.44 152.55L184.55 121.5L151.39 128.19Z" stroke="#303870" stroke-width="2.25" stroke-linecap="round" stroke-linejoin="round"/>
<path d="M263.5 128.19C263.5 128.19 259.25 150.88 244.88 161.9C229.58 173.63 217.83 166.23 213.17 161.9C210.421 159.383 208.435 156.142 207.44 152.55L230.33 121.5L263.5 128.19Z" fill="#8981EA"/>
<path d="M166.28 121.58C166.28 121.58 174.99 148.58 210 148.24C245.01 147.9 249.19 120.45 249.19 120.45L166.28 121.58Z" fill="#6851F9"/>
<path d="M263.5 128.19C263.5 128.19 259.25 150.88 244.88 161.9C229.58 173.63 217.83 166.23 213.17 161.9C210.421 159.383 208.435 156.142 207.44 152.55L230.33 121.5L263.5 128.19Z" stroke="#303870" stroke-width="2.25" stroke-linecap="round" stroke-linejoin="round"/>
<path d="M207.44 152.55V343.46" stroke="#303870" stroke-width="2.25" stroke-linecap="round" stroke-linejoin="round"/>
<path d="M193.06 193.21C194.628 193.21 195.9 191.938 195.9 190.37C195.9 188.802 194.628 187.53 193.06 187.53C191.491 187.53 190.22 188.802 190.22 190.37C190.22 191.938 191.491 193.21 193.06 193.21Z" fill="#303870"/>
<path d="M193.06 222.23C194.628 222.23 195.9 220.959 195.9 219.39C195.9 217.822 194.628 216.55 193.06 216.55C191.491 216.55 190.22 217.822 190.22 219.39C190.22 220.959 191.491 222.23 193.06 222.23Z" fill="#303870"/>
<path d="M193.06 251.25C194.628 251.25 195.9 249.978 195.9 248.41C195.9 246.842 194.628 245.57 193.06 245.57C191.491 245.57 190.22 246.842 190.22 248.41C190.22 249.978 191.491 251.25 193.06 251.25Z" fill="#303870"/>
<path d="M193.06 280.27C194.628 280.27 195.9 278.998 195.9 277.43C195.9 275.862 194.628 274.59 193.06 274.59C191.491 274.59 190.22 275.862 190.22 277.43C190.22 278.998 191.491 280.27 193.06 280.27Z" fill="#303870"/>
<path d="M193.06 309.28C194.628 309.28 195.9 308.008 195.9 306.44C195.9 304.872 194.628 303.6 193.06 303.6C191.491 303.6 190.22 304.872 190.22 306.44C190.22 308.008 191.491 309.28 193.06 309.28Z" fill="#303870"/>
<path d="M155.63 180.01L158.1 251.86L131.9 251.54" stroke="#303870" stroke-width="2.25" stroke-linecap="round" stroke-linejoin="round"/>
<path d="M118.12 152.55C118.12 152.55 103.67 183.15 102.73 217.5C102.07 241.72 103.11 257.5 103.11 257.5H86.21C86.21 257.5 84.71 228.22 94.1 202.31C103.49 176.4 118.12 152.55 118.12 152.55Z" fill="#80D8FF"/>
<path d="M132.76 314.73C132.76 314.73 139.51 318.67 158.1 312.48C176.69 306.29 196.31 286 196.31 286L132.76 292.2V314.73Z" fill="#80D8FF"/>
<path d="M280.37 158.5C280.37 158.5 268.74 150.43 258.99 153.63C249.24 156.83 248.52 161.77 248.52 161.77C248.52 161.77 242.12 161.85 239.65 167.84C237.18 173.83 238.77 177.04 238.77 177.04C236.613 178.415 234.893 180.377 233.812 182.696C232.732 185.015 232.336 187.594 232.67 190.13C233.83 199.01 239.67 200.46 239.67 200.46C239.67 200.46 235.59 215.01 245.67 225.77C255.75 236.53 260.36 237.41 260.36 237.41C260.36 237.41 261.23 243.52 266.03 245.26C268.908 246.306 272.005 246.605 275.03 246.13C275.03 246.13 281.29 251.23 291.32 249.19C301.35 247.15 303.4 239.59 303.4 239.59C305.893 240.571 308.603 240.872 311.25 240.46C315.47 239.73 316.63 235.52 316.63 235.52C316.63 235.52 322.74 233.92 323.91 228.39C325.08 222.86 322.01 220.39 322.01 220.39C324.426 219.643 326.588 218.243 328.257 216.344C329.927 214.445 331.039 212.121 331.47 209.63C333.21 200.75 329 199.63 329 199.63C329 199.63 335.4 198.63 334.81 189.45C334.22 180.27 328.12 179.15 328.12 179.15C328.12 179.15 327.54 168.65 321.43 163.27C315.32 157.89 311.25 158.54 311.25 158.54C311.25 158.54 308.25 150.9 293.94 151.63C291.333 151.806 288.788 152.506 286.457 153.686C284.126 154.866 282.056 156.503 280.37 158.5Z" fill="#80D8FF"/>
<path d="M262 241.82C262 241.82 268.37 289.39 275.64 308.45C284.64 332.03 295.51 333.4 295.51 333.4L287.66 243.21L262 241.82Z" fill="#80D8FF"/>
<path d="M209.63 128.19C188.91 128.07 139.75 131.1 122.88 147.97C106.01 164.84 100.77 191.61 98.1501 213.72C96.5973 226.267 95.8192 238.897 95.8201 251.54H131.9L124.33 343.46H293.33L288.09 248.92H324.17C324.17 248.92 319.22 190.74 301.77 167.46C284.32 144.18 260.6 128.48 209.63 128.19Z" stroke="#303870" stroke-width="2.25" stroke-linecap="round" stroke-linejoin="round"/>
<path d="M268.33 229.14C268.33 229.14 272.7 280.63 280.55 300.7C288.4 320.77 291.75 335.9 305.13 335.9H327.13C327.13 335.9 332.28 335.47 334.61 325.28C336.94 315.09 321.31 217.5 321.31 217.5L268.33 229.14Z" fill="#FEDED5"/>
<path d="M280.37 158.5C280.37 158.5 268.74 150.43 258.99 153.63C249.24 156.83 248.52 161.77 248.52 161.77C248.52 161.77 242.12 161.85 239.65 167.84C237.18 173.83 238.77 177.04 238.77 177.04C236.613 178.415 234.893 180.377 233.812 182.696C232.732 185.015 232.336 187.594 232.67 190.13C233.83 199.01 239.67 200.46 239.67 200.46C239.67 200.46 235.59 215.01 245.67 225.77C255.75 236.53 260.36 237.41 260.36 237.41C260.36 237.41 261.23 243.52 266.03 245.26C268.908 246.306 272.005 246.605 275.03 246.13C275.03 246.13 281.29 251.23 291.32 249.19C301.35 247.15 303.4 239.59 303.4 239.59C305.893 240.571 308.603 240.872 311.25 240.46C315.47 239.73 316.63 235.52 316.63 235.52C316.63 235.52 322.74 233.92 323.91 228.39C325.08 222.86 322.01 220.39 322.01 220.39C324.426 219.643 326.588 218.243 328.257 216.344C329.927 214.445 331.039 212.121 331.47 209.63C333.21 200.75 329 199.63 329 199.63C329 199.63 335.4 198.63 334.81 189.45C334.22 180.27 328.12 179.15 328.12 179.15C328.12 179.15 327.54 168.65 321.43 163.27C315.32 157.89 311.25 158.54 311.25 158.54C311.25 158.54 308.25 150.9 293.94 151.63C291.333 151.806 288.788 152.506 286.457 153.686C284.126 154.866 282.056 156.503 280.37 158.5Z" fill="#F4B3A8"/>
<path d="M325.34 294.75L307 226.32L325.4 222.44L329.31 250.09C331.414 265.085 330.056 280.362 325.34 294.75Z" fill="#F4B3A8"/>
<path d="M309.58 234.68L326.69 299.87" stroke="#303870" stroke-width="2.25" stroke-linecap="round" stroke-linejoin="round"/>
<path d="M326.21 347.72C335.715 347.72 343.42 341.501 343.42 333.83C343.42 326.159 335.715 319.94 326.21 319.94C316.705 319.94 309 326.159 309 333.83C309 341.501 316.705 347.72 326.21 347.72Z" fill="#F4B3A8"/>
<path d="M268.33 229.14C268.33 229.14 272.7 280.63 280.55 300.7C288.4 320.77 291.75 335.9 305.13 335.9H327.13C327.13 335.9 332.28 335.47 334.61 325.28C336.94 315.09 321.31 217.5 321.31 217.5L268.33 229.14Z" stroke="#303870" stroke-width="2.25" stroke-linecap="round" stroke-linejoin="round"/>
<path d="M281.86 152.55C281.86 152.55 270.22 144.48 260.48 147.68C250.74 150.88 250 155.83 250 155.83C250 155.83 243.6 155.9 241.13 161.9C238.66 167.9 240.26 171.1 240.26 171.1C238.103 172.476 236.382 174.438 235.3 176.756C234.218 179.074 233.819 181.653 234.15 184.19C235.31 193.06 241.15 194.52 241.15 194.52C241.15 194.52 237.08 209.06 247.15 219.83C257.22 230.6 261.84 231.46 261.84 231.46C261.84 231.46 262.71 237.57 267.51 239.32C270.39 240.36 273.486 240.656 276.51 240.18C276.51 240.18 282.76 245.28 292.8 243.24C302.84 241.2 304.87 233.64 304.87 233.64C307.367 234.621 310.078 234.924 312.73 234.52C316.94 233.79 318.11 229.57 318.11 229.57C318.11 229.57 324.22 227.97 325.38 222.44C326.54 216.91 323.49 214.44 323.49 214.44C325.905 213.694 328.066 212.293 329.734 210.394C331.402 208.495 332.512 206.171 332.94 203.68C334.69 194.81 330.47 193.68 330.47 193.68C330.47 193.68 336.87 192.68 336.29 183.5C335.71 174.32 329.6 173.21 329.6 173.21C329.6 173.21 329.02 162.7 322.91 157.32C316.8 151.94 312.73 152.59 312.73 152.59C312.73 152.59 309.67 144.96 295.42 145.68C292.815 145.858 290.272 146.558 287.942 147.738C285.613 148.918 283.544 150.554 281.86 152.55Z" fill="white"/>
<path d="M268.26 178C269.425 178.441 270.401 179.271 271.023 180.351C271.644 181.43 271.873 182.691 271.67 183.92C271.17 188.56 268.33 194.32 268.33 194.32L286.51 173.26L300.37 203.26C300.37 203.26 307.71 210.95 290.44 219.96C273.17 228.97 260.3 237.43 260.3 237.43L242.13 211.88L268.26 178Z" fill="#80D8FF"/>
<path d="M264.91 166.5C265.847 165.115 267.051 163.931 268.453 163.019C269.854 162.107 271.424 161.485 273.07 161.19C274.647 160.905 276.27 161.032 277.783 161.557C279.297 162.083 280.649 162.99 281.71 164.19" stroke="#80D8FF" stroke-width="2.25" stroke-linecap="round" stroke-linejoin="round"/>
<path d="M246.33 184C246.047 182.892 245.989 181.739 246.161 180.608C246.333 179.478 246.73 178.394 247.33 177.42C247.894 176.484 248.691 175.71 249.642 175.172C250.593 174.634 251.667 174.351 252.76 174.35" stroke="#80D8FF" stroke-width="2.25" stroke-linecap="round" stroke-linejoin="round"/>
<path d="M302.78 166.51C303.921 166.452 305.061 166.623 306.135 167.013C307.208 167.402 308.193 168.003 309.03 168.78C309.834 169.524 310.433 170.462 310.769 171.504C311.105 172.546 311.167 173.657 310.95 174.73" stroke="#80D8FF" stroke-width="2.25" stroke-linecap="round" stroke-linejoin="round"/>
<path d="M308.37 217.19C308.108 218.303 307.626 219.352 306.953 220.276C306.28 221.2 305.429 221.98 304.45 222.57C303.513 223.133 302.446 223.445 301.354 223.477C300.261 223.508 299.178 223.258 298.21 222.75" stroke="#80D8FF" stroke-width="2.25" stroke-linecap="round" stroke-linejoin="round"/>
<path d="M317.34 187.84C318.73 188.886 319.895 190.2 320.768 191.705C321.641 193.21 322.202 194.874 322.42 196.6C322.631 198.25 322.414 199.926 321.788 201.468C321.163 203.009 320.151 204.364 318.85 205.4" stroke="#80D8FF" stroke-width="2.25" stroke-linecap="round" stroke-linejoin="round"/>
<path d="M281.86 152.55C281.86 152.55 270.22 144.48 260.48 147.68C250.74 150.88 250 155.83 250 155.83C250 155.83 243.6 155.9 241.13 161.9C238.66 167.9 240.26 171.1 240.26 171.1C238.103 172.476 236.382 174.438 235.3 176.756C234.218 179.074 233.819 181.653 234.15 184.19C235.31 193.06 241.15 194.52 241.15 194.52C241.15 194.52 237.08 209.06 247.15 219.83C257.22 230.6 261.84 231.46 261.84 231.46C261.84 231.46 262.71 237.57 267.51 239.32C270.39 240.36 273.486 240.656 276.51 240.18C276.51 240.18 282.76 245.28 292.8 243.24C302.84 241.2 304.87 233.64 304.87 233.64C307.367 234.621 310.078 234.924 312.73 234.52C316.94 233.79 318.11 229.57 318.11 229.57C318.11 229.57 324.22 227.97 325.38 222.44C326.54 216.91 323.49 214.44 323.49 214.44C325.905 213.694 328.066 212.293 329.734 210.394C331.402 208.495 332.512 206.171 332.94 203.68C334.69 194.81 330.47 193.68 330.47 193.68C330.47 193.68 336.87 192.68 336.29 183.5C335.71 174.32 329.6 173.21 329.6 173.21C329.6 173.21 329.02 162.7 322.91 157.32C316.8 151.94 312.73 152.59 312.73 152.59C312.73 152.59 309.67 144.96 295.42 145.68C292.815 145.858 290.272 146.558 287.942 147.738C285.613 148.918 283.544 150.554 281.86 152.55Z" stroke="#303870" stroke-width="2.25" stroke-linecap="round" stroke-linejoin="round"/>
<path d="M190.28 108.84V128.48C190.28 128.48 188.54 152.55 207.44 152.55C226.34 152.55 225 126.88 225 126.88V108.88L190.28 108.84Z" fill="#FEDED5" stroke="#303870" stroke-width="2.25" stroke-linecap="round" stroke-linejoin="round"/>
<path d="M175.89 53.19C175.89 53.19 170.34 78.58 175.46 94.19C178.53 103.53 191.89 115.31 207.25 115.31C222.61 115.31 236.06 105.71 240.54 92.48C245.02 79.25 238.62 51.08 238.62 51.08C238.62 51.08 231.37 26.08 205.33 27.19C179.29 28.3 175.89 53.19 175.89 53.19Z" fill="#FEDED5"/>
<path d="M173.29 54.26C173.29 54.26 174.93 58.2 180.37 58.42C185.81 58.64 187.2 55 187.2 55C187.2 55 188.2 58.84 196.26 58.84C204.32 58.84 204.91 55.22 204.91 55.22C204.91 55.22 206.08 57.88 210.67 57.88C215.26 57.88 216.43 56.07 216.43 56.07C216.43 56.07 218.43 58.84 224 58.84C229.57 58.84 231.15 55.96 231.15 55.96C231.15 55.96 232.22 58.52 237.02 58.52C241.82 58.52 243.02 56.86 243.02 56.86C243.02 56.86 239.28 24.06 206.95 24.49C174.62 24.92 173.29 54.26 173.29 54.26Z" fill="#F87B5A"/>
<path d="M187.2 55C186.842 50.1719 186.762 45.3273 186.96 40.49L187.2 55Z" fill="#F87B5A"/>
<path d="M187.2 55C186.842 50.1719 186.762 45.3273 186.96 40.49" stroke="#303870" stroke-width="2.25" stroke-linecap="round" stroke-linejoin="round"/>
<path d="M204.02 34.3L204.91 55.22" stroke="#303870" stroke-width="2.25" stroke-linecap="round" stroke-linejoin="round"/>
<path d="M216.1 39.51L216.43 56.07" stroke="#303870" stroke-width="2.25" stroke-linecap="round" stroke-linejoin="round"/>
<path d="M229.62 42.74C230.911 47.0347 231.429 51.5243 231.15 56L229.62 42.74Z" fill="#F87B5A"/>
<path d="M229.62 42.74C230.911 47.0347 231.429 51.5243 231.15 56" stroke="#303870" stroke-width="2.25" stroke-linecap="round" stroke-linejoin="round"/>
<path d="M175.19 56.86C175.19 56.86 179.31 36.59 200.62 30.98C221.93 25.37 238.62 51.05 238.62 51.05C238.62 51.05 231.31 17.12 202.62 21.35C173.93 25.58 175.22 56.86 175.22 56.86" fill="#F25444"/>
<path d="M173.29 54.26C173.29 54.26 174.93 58.2 180.37 58.42C185.81 58.64 187.2 55 187.2 55C187.2 55 188.2 58.84 196.26 58.84C204.32 58.84 204.91 55.22 204.91 55.22C204.91 55.22 206.08 57.88 210.67 57.88C215.26 57.88 216.43 56.07 216.43 56.07C216.43 56.07 218.43 58.84 224 58.84C229.57 58.84 231.15 55.96 231.15 55.96C231.15 55.96 232.22 58.52 237.02 58.52C241.82 58.52 243.02 56.86 243.02 56.86C243.02 56.86 239.28 24.06 206.95 24.49C174.62 24.92 173.29 54.26 173.29 54.26Z" stroke="#303870" stroke-width="2.25" stroke-linecap="round" stroke-linejoin="round"/>
<path d="M183.12 70.54C183.546 71.5113 184.246 72.3374 185.134 72.9175C186.022 73.4976 187.059 73.8065 188.12 73.8065C189.181 73.8065 190.218 73.4976 191.106 72.9175C191.994 72.3374 192.694 71.5113 193.12 70.54" stroke="#303870" stroke-width="2.25" stroke-linecap="round" stroke-linejoin="round"/>
<path d="M222.17 70.54C222.596 71.5113 223.296 72.3374 224.184 72.9175C225.072 73.4976 226.109 73.8065 227.17 73.8065C228.231 73.8065 229.268 73.4976 230.156 72.9175C231.044 72.3374 231.744 71.5113 232.17 70.54" stroke="#303870" stroke-width="2.25" stroke-linecap="round" stroke-linejoin="round"/>
<path d="M205.83 68.81C205.83 68.81 205.54 72.95 204 74.68C202.46 76.41 202.36 77.57 204 79.01L205.64 80.46" stroke="#303870" stroke-width="2.25" stroke-linecap="round" stroke-linejoin="round"/>
<path d="M195 88.16C198.515 90.1777 202.497 91.2394 206.55 91.2394C210.603 91.2394 214.585 90.1777 218.1 88.16" stroke="#303870" stroke-width="2.25" stroke-linecap="round" stroke-linejoin="round"/>
<path d="M207.66 96.92C209.246 97.0105 210.837 96.8451 212.37 96.43C213.497 96.1625 214.572 95.7096 215.55 95.09C215.55 95.09 216.55 99.51 212.28 100.09C208.01 100.67 207.66 96.92 207.66 96.92Z" fill="#F4B3A8"/>
<path d="M175.89 53.19C175.89 53.19 170.34 78.58 175.46 94.19C178.53 103.53 191.89 115.31 207.25 115.31C222.61 115.31 236.06 105.71 240.54 92.48C245.02 79.25 238.62 51.08 238.62 51.08C238.62 51.08 231.37 26.08 205.33 27.19C179.29 28.3 175.89 53.19 175.89 53.19Z" stroke="#303870" stroke-width="2.25" stroke-linecap="round" stroke-linejoin="round"/>
<path d="M174.47 61.55C172.456 58.9837 169.515 57.3103 166.28 56.89C161.02 56.32 155.47 63.89 159.46 72.11C163.45 80.33 173.29 82.35 173.29 82.35L174.47 61.55Z" fill="#FEDED5"/>
<path d="M166.83 63.2C166.83 63.2 164.67 62.2 164.3 65.83C164.15 66.8213 164.254 67.8345 164.604 68.7741C164.954 69.7137 165.538 70.5486 166.3 71.2" fill="#FEDED5"/>
<path d="M166.83 63.2C166.83 63.2 164.67 62.2 164.3 65.83C164.15 66.8213 164.254 67.8345 164.604 68.7741C164.954 69.7137 165.538 70.5486 166.3 71.2" stroke="#303870" stroke-width="2.25" stroke-linecap="round" stroke-linejoin="round"/>
<path d="M173.29 56.86C173.29 56.86 169.37 75.69 169.46 82.49C169.55 89.29 175.28 88.17 175.28 88.17L177.53 57.29L173.29 56.86Z" fill="#F4B3A8"/>
<path d="M174.47 61.55C172.456 58.9837 169.515 57.3103 166.28 56.89C161.02 56.32 155.47 63.89 159.46 72.11C163.45 80.33 173.29 82.35 173.29 82.35L174.47 61.55Z" stroke="#303870" stroke-width="2.25" stroke-linecap="round" stroke-linejoin="round"/>
<path d="M241 61.55C243.012 58.9859 245.948 57.3128 249.18 56.89C254.45 56.32 260 63.89 256.01 72.11C252.02 80.33 242.18 82.35 242.18 82.35L241 61.55Z" fill="#FEDED5"/>
<path d="M247.08 64C247.08 64 249.14 62.14 251 63.21C251.496 63.4169 251.899 63.7963 252.137 64.278C252.374 64.7598 252.428 65.3111 252.29 65.83" fill="#FEDED5"/>
<path d="M247.08 64C247.08 64 249.14 62.14 251 63.21C251.496 63.4169 251.899 63.7963 252.137 64.278C252.374 64.7598 252.428 65.3111 252.29 65.83" stroke="#303870" stroke-width="2.25" stroke-linecap="round" stroke-linejoin="round"/>
<path d="M250.6 71.2L247.5 74.28" stroke="#303870" stroke-width="2.25" stroke-linecap="round" stroke-linejoin="round"/>
<path d="M242.71 56.86C242.71 56.86 244.4 72.73 245.25 78.64C246.1 84.55 246.54 91.21 246.54 91.21C246.54 91.21 236.66 85.96 236.94 85.54C237.22 85.12 237.02 58.54 237.02 58.54L242.71 56.86Z" fill="#F4B3A8"/>
<path d="M241 61.55C243.012 58.9859 245.948 57.3128 249.18 56.89C254.45 56.32 260 63.89 256.01 72.11C252.02 80.33 242.18 82.35 242.18 82.35L241 61.55Z" stroke="#303870" stroke-width="2.25" stroke-linecap="round" stroke-linejoin="round"/>
<path d="M321.14 138.46C325.1 138.46 328.31 135.25 328.31 131.29C328.31 127.33 325.1 124.12 321.14 124.12C317.18 124.12 313.97 127.33 313.97 131.29C313.97 135.25 317.18 138.46 321.14 138.46Z" fill="white" stroke="#303870" stroke-width="2.25" stroke-linecap="round" stroke-linejoin="round"/>
<path d="M345.54 161.3C347.954 161.3 349.91 159.343 349.91 156.93C349.91 154.517 347.954 152.56 345.54 152.56C343.127 152.56 341.17 154.517 341.17 156.93C341.17 159.343 343.127 161.3 345.54 161.3Z" fill="white" stroke="#303870" stroke-width="2.25" stroke-linecap="round" stroke-linejoin="round"/>
<path d="M348.69 200.6C350.43 200.6 351.84 199.19 351.84 197.45C351.84 195.71 350.43 194.3 348.69 194.3C346.95 194.3 345.54 195.71 345.54 197.45C345.54 199.19 346.95 200.6 348.69 200.6Z" fill="white" stroke="#303870" stroke-width="2.25" stroke-linecap="round" stroke-linejoin="round"/>
<path d="M106.59 251.54H150.51C150.51 251.54 227.31 211.68 235.75 204.41C244.19 197.14 257.06 179 262.4 177.06C267.74 175.12 270.7 178.81 267.64 184.06C264.58 189.31 262.3 192.14 265.46 191.06C268.62 189.98 277.57 185.71 279.46 183.31C281.35 180.91 282.84 174.04 286.55 173.31C290.26 172.58 289.72 177.9 289.17 180.51C288.62 183.12 285.9 188.7 283.5 190.33C281.1 191.96 272.59 196.77 272.59 196.77C272.59 196.77 285.9 189.9 288.84 185.64C291.78 181.38 294.63 175.82 296.37 179.1C298.11 182.38 295.17 187.39 293.75 189.46C292.33 191.53 275.54 203.75 275.54 203.75C275.54 203.75 294.08 193.39 295.54 190.66C297 187.93 296.74 186.19 299.47 185.97C302.2 185.75 300.67 193.97 299.47 196.11C298.27 198.25 291.47 203.86 288.56 205.61C285.65 207.36 277.56 211.71 277.56 211.71C277.56 211.71 291.96 207.35 294.69 204.51C297.42 201.67 301.56 198.62 300.47 203.31C299.38 208 286.3 216.88 272 223.75C257.7 230.62 248.33 238.75 238.08 245.75C227.83 252.75 205.08 283.27 178.73 298.69C158.28 310.69 132.73 311.49 118.51 291.69C104.29 271.89 106.59 251.54 106.59 251.54Z" fill="#FEDED5"/>
<path d="M150.51 251.54L126.76 263.11" stroke="#303870" stroke-width="2.25" stroke-linecap="round" stroke-linejoin="round"/>
<path d="M100.1 265.36C100.1 265.36 107.61 257.86 123.75 255.98C132.744 254.988 141.678 253.506 150.51 251.54V240.18H102L100.1 265.36Z" fill="#F4B3A8"/>
<path d="M145.26 322.22C156.77 322.22 166.1 315.495 166.1 307.2C166.1 298.905 156.77 292.18 145.26 292.18C133.751 292.18 124.42 298.905 124.42 307.2C124.42 315.495 133.751 322.22 145.26 322.22Z" fill="#F4B3A8"/>
<path d="M106.59 251.54H150.51C150.51 251.54 227.31 211.68 235.75 204.41C244.19 197.14 257.06 179 262.4 177.06C267.74 175.12 270.7 178.81 267.64 184.06C264.58 189.31 262.3 192.14 265.46 191.06C268.62 189.98 277.57 185.71 279.46 183.31C281.35 180.91 282.84 174.04 286.55 173.31C290.26 172.58 289.72 177.9 289.17 180.51C288.62 183.12 285.9 188.7 283.5 190.33C281.1 191.96 272.59 196.77 272.59 196.77C272.59 196.77 285.9 189.9 288.84 185.64C291.78 181.38 294.63 175.82 296.37 179.1C298.11 182.38 295.17 187.39 293.75 189.46C292.33 191.53 275.54 203.75 275.54 203.75C275.54 203.75 294.08 193.39 295.54 190.66C297 187.93 296.74 186.19 299.47 185.97C302.2 185.75 300.67 193.97 299.47 196.11C298.27 198.25 291.47 203.86 288.56 205.61C285.65 207.36 277.56 211.71 277.56 211.71C277.56 211.71 291.96 207.35 294.69 204.51C297.42 201.67 301.56 198.62 300.47 203.31C299.38 208 286.3 216.88 272 223.75C257.7 230.62 248.33 238.75 238.08 245.75C227.83 252.75 205.08 283.27 178.73 298.69C158.28 310.69 132.73 311.49 118.51 291.69C104.29 271.89 106.59 251.54 106.59 251.54Z" stroke="#303870" stroke-width="2.25" stroke-linecap="round" stroke-linejoin="round"/>
<path d="M184.16 83.29C187.512 83.29 190.23 82.2513 190.23 80.97C190.23 79.6887 187.512 78.65 184.16 78.65C180.808 78.65 178.09 79.6887 178.09 80.97C178.09 82.2513 180.808 83.29 184.16 83.29Z" fill="#F4B3A8"/>
<path d="M232.31 83.29C235.662 83.29 238.38 82.2513 238.38 80.97C238.38 79.6887 235.662 78.65 232.31 78.65C228.958 78.65 226.24 79.6887 226.24 80.97C226.24 82.2513 228.958 83.29 232.31 83.29Z" fill="#F4B3A8"/>
<path d="M381.34 112.63L360.67 117.19L356.48 89.07L371.07 85.85L381.34 112.63Z" fill="#6851F9" stroke="#303870" stroke-width="2.25" stroke-linecap="round" stroke-linejoin="round"/>
<path d="M354.927 82.8165L362.28 81.1944C362.746 81.0916 363.234 81.1781 363.637 81.4351C364.039 81.692 364.323 82.0982 364.426 82.5644L365.425 87.0955L354.556 89.493L353.557 84.962C353.454 84.4958 353.541 84.0079 353.798 83.6055C354.054 83.2032 354.461 82.9193 354.927 82.8165Z" fill="#F4B3A8" stroke="#303870" stroke-width="2.25" stroke-linecap="round" stroke-linejoin="round"/>
<path d="M373.45 114.37L352.78 118.93L348.6 90.81L365.42 87.1L373.45 114.37Z" fill="#8981EA" stroke="#303870" stroke-width="2.25" stroke-linecap="round" stroke-linejoin="round"/>
<path d="M15.63 343.46H178.09" stroke="#303870" stroke-width="2.25" stroke-linecap="round" stroke-linejoin="round"/>
<path d="M321.14 343.46H402.37" stroke="#303870" stroke-width="2.25" stroke-linecap="round" stroke-linejoin="round"/>
</svg>
